PathFileType	4	(X/Y/Z)	A:\Common\BMMB\PROJECTS\STRATO\DataSTRATO\DataSTRATO\0021~016 ID\0021~aa~ID 016\Standing_STRATO_ID_16.trc
DataRate	CameraRate	NumFrames	NumMarkers	Units	OrigDataRate	OrigDataStartFrame	OrigNumFrames
250.00	250.00	16	22	mm	250.00	1379	3281
Frame#	Time	r.should			l.should			c7			r.asis			l.asis			sacrum			r.bar1			l.bar1			r.knee1			l.knee1			r.bar2			r.mall			l.bar2			l.mall			r.met			r.heel			l.heel			l.met			r.mallm			l.mallm			r.kneem			l.kneem			
		X1	Y1	Z1	X2	Y2	Z2	X3	Y3	Z3	X4	Y4	Z4	X5	Y5	Z5	X6	Y6	Z6	X7	Y7	Z7	X8	Y8	Z8	X9	Y9	Z9	X10	Y10	Z10	X11	Y11	Z11	X12	Y12	Z12	X13	Y13	Z13	X14	Y14	Z14	X15	Y15	Z15	X16	Y16	Z16	X17	Y17	Z17	X18	Y18	Z18	X19	Y19	Z19	X20	Y20	Z20	X21	Y21	Z21	X22	Y22	Z22	

1378	5.512000	338.185936	1331.039429	300.267518	40.521137	1346.876502	294.837743	198.483676	1389.299750	381.737381	295.515656	889.586508	148.458108	55.077802	877.174020	167.880192	192.119762	952.828825	381.534755	390.787154	815.261185	235.886037	-11.790191	791.716754	266.515076	350.977689	465.396345	279.003382	13.155591	468.074918	353.453279	337.330163	414.077967	274.461448	328.306437	70.444867	304.872274	10.405951	424.068332	363.141060	49.181107	54.143671	335.697263	295.185357	36.729373	163.584217	286.448658	37.098475	362.777770	96.052632	31.996921	401.296407	75.639055	36.112525	196.440831	243.604258	78.563660	299.244225	129.656464	79.487480	329.814941	207.565308	440.671027	321.416587	160.286248	445.689082	361.189008	
1379	5.516000	338.192135	1331.066728	300.294310	40.514816	1346.894264	294.845551	198.481768	1389.306784	381.779969	295.504957	889.608860	148.446947	55.083610	877.185285	167.862818	192.135796	952.839077	381.540030	390.780866	815.281272	235.873133	-11.806490	791.719019	266.504765	350.973099	465.404093	278.997779	13.161867	468.100041	353.446960	337.321252	414.083332	274.481833	328.301549	70.458785	304.887891	10.427730	424.083203	363.108248	49.202118	54.454081	335.165471	295.175433	36.752045	163.579136	286.450326	37.108555	362.781703	96.052356	32.009456	401.312292	75.623954	36.136143	196.434751	243.598670	78.566127	299.249887	129.637182	79.506516	329.856485	207.568258	440.681279	321.408004	160.284132	445.688754	361.181319	
1380	5.520000	338.194609	1331.085324	300.292969	40.505856	1346.895456	294.866979	198.487788	1389.307380	381.798893	295.495540	889.622509	148.446947	55.076864	877.206326	167.848587	192.125708	952.852368	381.539583	390.782624	815.314770	235.902056	-11.822927	791.719973	266.529113	350.965023	465.420038	278.993845	13.136719	468.112528	353.471041	337.308258	414.104730	274.460256	328.297496	70.465282	304.905236	10.444136	424.087703	363.100410	49.151413	54.017730	335.908949	295.175701	36.772165	163.567230	286.449045	37.100691	362.786561	96.059956	32.019336	401.321203	75.612383	36.163695	196.440533	243.605331	78.559786	299.262315	129.627347	79.517074	329.861224	207.563937	440.672398	321.403116	160.291985	445.685208	361.198604	
1381	5.524000	338.182032	1331.098437	300.283790	40.500835	1346.903920	294.874668	198.492765	1389.298201	381.807625	295.491666	889.661789	148.410454	55.074632	877.209544	167.833418	192.120850	952.850819	381.536245	390.780181	815.317810	235.929728	-11.824418	791.732609	266.537368	350.957751	465.435266	278.997988	13.138616	468.106151	353.446782	337.294877	414.100736	274.476022	328.302026	70.470557	304.915696	10.440428	424.103558	363.113403	49.099553	53.421292	336.892605	295.175135	36.784783	163.575843	286.458254	37.110303	362.798572	96.067235	32.034785	401.335597	75.608134	36.193103	196.465924	243.610308	78.572690	299.266815	129.627794	79.542615	329.859316	207.573384	440.679997	321.436852	160.296977	445.683300	361.206919	
1382	5.528000	338.178486	1331.114888	300.304502	40.498890	1346.929193	294.883877	198.491380	1389.295101	381.857574	295.491338	889.697790	148.376405	55.086572	877.211928	167.824134	192.116827	952.840686	381.538987	390.795082	815.317869	235.922277	-11.833267	791.727662	266.531378	350.956261	465.430379	278.997302	13.152240	468.091816	353.450775	337.296873	414.117366	274.478436	328.298420	70.471719	304.907978	10.431349	424.114883	363.111585	49.129352	53.788744	336.299628	295.190454	36.790647	163.569734	286.459595	37.126366	362.814337	96.058540	32.044388	401.333541	75.612887	36.221806	196.513310	243.601203	78.570478	299.261928	129.622370	79.543270	329.890609	207.578868	440.684468	321.434587	160.294324	445.680946	361.212015	
1383	5.532000	338.180810	1331.131935	300.341189	40.502377	1346.942067	294.883013	198.482692	1389.292002	381.892234	295.479506	889.724851	148.368776	55.085815	877.211273	167.834342	192.118555	952.847242	381.529421	390.798569	815.327942	235.914320	-11.837820	791.724324	266.537488	350.955993	465.432823	279.003352	13.160927	468.089283	353.403270	337.301075	414.119899	274.471790	328.294277	70.475072	304.918110	10.440122	424.104363	363.083959	49.057793	53.362504	336.965948	295.188367	36.790747	163.552478	286.441296	37.122864	362.790704	96.047863	32.043334	401.346654	75.619850	36.245354	196.563527	243.609577	78.565076	299.259424	129.612222	79.571322	329.881340	207.568258	440.688372	321.417689	160.305664	445.696890	361.200899	
1384	5.536000	338.176906	1331.145048	300.361753	40.505949	1346.941710	294.914365	198.473588	1389.287710	381.893814	295.476019	889.728487	148.347542	55.091485	877.213657	167.844713	192.112833	952.847362	381.547332	390.789986	815.343261	235.923797	-11.827533	791.728973	266.507357	350.952327	465.435356	279.015124	13.132514	468.098164	353.400767	337.308764	414.119273	274.478912	328.293383	70.478514	304.923683	10.432983	424.094111	363.090247	49.138583	53.751335	336.326182	295.183837	36.798179	163.576394	286.438584	37.100997	362.776488	96.045554	32.050930	401.356637	75.620115	36.258824	196.592003	243.592888	78.565702	299.263716	129.598349	79.579003	329.889953	207.565814	440.683335	321.439683	160.297394	445.686907	361.187518	
1385	5.540000	338.174433	1331.165910	300.370276	40.498331	1346.947432	294.921845	198.464394	1389.285326	381.903350	295.490682	889.740944	148.335293	55.084907	877.207160	167.867631	192.101330	952.846527	381.540239	390.776277	815.341890	235.910386	-11.812665	791.720629	266.449094	350.947171	465.447634	279.023200	13.121497	468.093961	353.377253	337.302625	414.105237	274.491221	328.289568	70.485555	304.930687	10.429453	424.088478	363.091052	49.095184	53.376943	336.981595	295.175284	36.788732	163.581759	286.442339	37.110396	362.771153	96.041940	32.066435	401.374698	75.607457	36.258973	196.581349	243.586391	78.560710	299.243152	129.602358	79.565272	329.908788	207.558796	440.668494	321.431398	160.287917	445.680410	361.177504	
1386	5.544000	338.161141	1331.173658	300.368875	40.498599	1346.953034	294.917226	198.457092	1389.297724	381.920516	295.488477	889.731050	148.343638	55.082224	877.231419	167.855293	192.095146	952.847302	381.534934	390.767992	815.324068	235.909671	-11.807999	791.729450	266.424298	350.946218	465.447485	279.000551	13.131171	468.087226	353.378445	337.296605	414.110333	274.472117	328.285277	70.484385	304.918826	10.438301	424.090534	363.069296	49.143992	53.741984	336.365938	295.191020	36.780003	163.566411	286.423624	37.119187	362.771362	96.033208	32.063726	401.365459	75.586385	36.249276	196.542740	243.593067	78.573078	299.221247	129.607230	79.557329	329.907507	207.553253	440.658271	321.425140	160.290629	445.678920	361.184865	
1387	5.548000	338.164389	1331.181288	300.356984	40.494598	1346.959352	294.917822	198.455006	1389.298201	381.932080	295.487970	889.723241	148.375258	55.093508	877.252519	167.822719	192.097291	952.840090	381.529927	390.770584	815.313160	235.899955	-11.833370	791.729450	266.448677	350.939453	465.439022	278.977722	13.144646	468.089759	353.365034	337.296218	414.110601	274.431288	328.277200	70.481822	304.912508	10.426965	424.097568	363.064319	49.007230	52.851647	337.792337	295.191199	36.801077	163.573861	286.412269	37.124813	362.780511	96.037567	32.057732	401.346743	75.564094	36.234889	196.494475	243.591294	78.574993	299.230993	129.605770	79.537220	329.896212	207.553059	440.668166	321.434200	160.294741	445.675254	361.183733	
1388	5.552000	338.178366	1331.194162	300.380796	40.493216	1346.955180	294.931471	198.447824	1389.295459	381.947875	295.480996	889.740825	148.338750	55.093646	877.245843	167.822331	192.092627	952.844262	381.529689	390.756756	815.304875	235.896453	-11.844002	791.722417	266.469181	350.940555	465.430051	278.970003	13.129044	468.101680	353.370875	337.297142	414.102912	274.411142	328.278333	70.481412	304.904789	10.423204	424.105674	363.067806	49.050614	53.106990	337.366164	295.177221	36.795266	163.563982	286.423385	37.128568	362.792373	96.033044	32.041810	401.326030	75.546492	36.220111	196.451709	243.579417	78.567252	299.236625	129.611596	79.536617	329.884142	207.552433	440.670073	321.418166	160.279006	445.672691	361.178517	
1389	5.556000	338.160455	1331.203461	300.390720	40.482357	1346.958399	294.945240	198.437884	1389.290690	381.955355	295.473099	889.736593	148.315907	55.103067	877.244830	167.833418	192.081183	952.845752	381.528407	390.762061	815.294802	235.917330	-11.856599	791.717529	266.490459	350.942612	465.425760	278.969109	13.138198	468.118727	353.371978	337.291509	414.101899	274.422497	328.287005	70.481688	304.903835	10.408904	424.106419	363.077193	49.144424	53.701356	336.435616	295.170933	36.773421	163.559645	286.422074	37.114676	362.791121	96.037537	32.045744	401.326776	75.534355	36.205824	196.416974	243.575305	78.567848	299.239188	129.612938	79.552375	329.869092	207.542688	440.674573	321.417421	160.267472	445.672929	361.185223	
1390	5.560000	338.165700	1331.225157	300.379366	40.484514	1346.959114	294.923306	198.442608	1389.286280	381.972820	295.481145	889.726400	148.342758	55.100463	877.271652	167.810291	192.080304	952.853739	381.540984	390.761554	815.294743	235.908926	-11.853752	791.717768	266.507387	350.938618	465.436041	278.951466	13.121679	468.118936	353.394151	337.301433	414.112806	274.430454	328.287810	70.469052	304.906487	10.398933	424.107522	363.096386	49.087934	53.369384	337.037146	295.200288	36.776684	163.580567	286.410391	37.106365	362.785101	96.022651	32.044269	401.325732	75.527177	36.192052	196.389645	243.580043	78.568496	299.231678	129.587024	79.537794	329.849929	207.537174	440.680385	321.402043	160.271689	445.687741	361.185014	
1391	5.564000	338.179171	1331.238627	300.388575	40.497288	1346.971631	294.910759	198.437676	1389.283895	381.980330	295.489073	889.732659	148.336589	55.095553	877.260864	167.838171	192.081660	952.849448	381.542355	390.766948	815.305114	235.909447	-11.861468	791.720986	266.526192	350.950301	465.442300	278.950542	13.129795	468.101740	353.361160	337.297618	414.111137	274.421543	328.289121	70.465855	304.889083	10.392207	424.113810	363.102943	49.147211	53.779159	336.401254	295.203567	36.776200	163.588479	286.409408	37.124619	362.791419	96.017487	32.038841	401.324958	75.524450	36.178816	196.369052	243.569717	78.570694	299.222052	129.598290	79.521596	329.873860	207.538486	440.680027	321.400434	160.288945	445.696265	361.171365	
1392	5.568000	338.186979	1331.251860	300.373375	40.510722	1346.982837	294.933051	198.436588	1389.275312	381.964236	295.493543	889.744818	148.340330	55.099905	877.269745	167.822659	192.080095	952.846408	381.506413	390.780389	815.302491	235.885814	-11.847732	791.716695	266.492605	350.956440	465.431690	278.971165	13.154358	468.082368	353.337526	337.295264	414.096951	274.403721	328.299046	70.465989	304.881692	10.391040	424.111664	363.089949	49.090907	53.382546	337.069035	295.182377	36.758021	163.572207	286.415756	37.114780	362.773508	96.040338	32.043956	401.316941	75.525667	36.166139	196.354598	243.580475	78.575283	299.242198	129.623026	79.504453	329.865068	207.540393	440.681130	321.400970	160.298511	445.702374	361.145914	
1393	5.572000	338.196367	1331.253290	300.372690	40.509917	1346.973658	294.922233	198.438227	1389.268756	381.972075	295.486957	889.736712	148.341089	55.104833	877.276182	167.834401	192.078635	952.854633	381.502360	390.791088	815.301418	235.841975	-11.844099	791.711092	266.475648	350.948840	465.413332	278.983206	13.149337	468.076408	353.330255	337.290287	414.092809	274.399400	328.304172	70.467502	304.888725	10.396301	424.113125	363.074690	49.221955	54.219715	335.670412	295.171112	36.751259	163.569584	286.415547	37.115537	362.762302	96.053585	32.037105	401.311189	75.530321	36.154050	196.345627	243.587285	78.555979	299.242109	129.631281	79.513311	329.861939	207.544178	440.678120	321.402252	160.306543	445.710659	361.148506	
